<?xml version="1.0" encoding="UTF-8" standalone="no"?>
<!-- Created with Inkscape (http://www.inkscape.org/) -->

<svg
   width="600"
   height="500"
   viewBox="0 0 600 500"
   version="1.1"
   id="svg1"
   inkscape:version="1.4 (86a8ad7, 2024-10-11)"
   sodipodi:docname="g-logo2.svg"
   xmlns:inkscape="http://www.inkscape.org/namespaces/inkscape"
   xmlns:sodipodi="http://sodipodi.sourceforge.net/DTD/sodipodi-0.dtd"
   xmlns="http://www.w3.org/2000/svg"
   xmlns:svg="http://www.w3.org/2000/svg">
  <sodipodi:namedview
     id="namedview1"
     pagecolor="#ffffff"
     bordercolor="#999999"
     borderopacity="1"
     inkscape:showpageshadow="2"
     inkscape:pageopacity="0"
     inkscape:pagecheckerboard="0"
     inkscape:deskcolor="#d1d1d1"
     inkscape:document-units="px"
     showgrid="false"
     inkscape:zoom="0.72275885"
     inkscape:cx="145.27667"
     inkscape:cy="259.42263"
     inkscape:window-width="1680"
     inkscape:window-height="987"
     inkscape:window-x="-8"
     inkscape:window-y="13"
     inkscape:window-maximized="1"
     inkscape:current-layer="layer1">
    <inkscape:grid
       id="grid1"
       units="px"
       originx="0"
       originy="0"
       spacingx="1"
       spacingy="1"
       empcolor="#0099e5"
       empopacity="0.30196078"
       color="#0099e5"
       opacity="0.14901961"
       empspacing="5"
       enabled="true"
       visible="false" />
  </sodipodi:namedview>
  <defs
     id="defs1" />
  <g
     inkscape:label="skrokkur"
     inkscape:groupmode="layer"
     id="layer1"
     style="display:inline">
    <path
       id="text6"
       style="-inkscape-font-specification:'Baskerville Old Face';fill:#000000;stroke:#ffffff;stroke-width:0;stroke-linecap:round;stroke-linejoin:round"
       d="m 236.82145,2.3508684 c -31.72371,0 -62.69308,5.5257495 -92.90615,16.5768516 C 113.70226,29.97882 87.517338,45.492857 65.361101,65.469848 27.594769,99.048202 8.7118978,137.30064 8.7118978,180.2299 c 0,33.57836 12.0864932,64.39462 36.2569422,92.44742 24.170443,27.62775 58.15875,49.94255 101.9677,66.94425 -45.31957,9.77598 -76.539642,18.91495 -93.660376,27.41579 -33.234373,17.42674 -49.8503557,41.22834 -49.8503557,71.40635 0,28.47784 71.7079947,59.35064 118.0486217,54.17404 61.42541,-6.86168 68.50011,-9.63998 176.78468,-23.27161 117.80943,-14.83067 214.70131,20.29403 214.70131,20.29403 0,0 -124.90534,-76.6972 -188.79061,-78.71458 -44.12213,-1.3933 -132.5837,15.45321 -176.04637,23.17981 -61.970462,11.01685 -76.719873,4.76417 -76.719873,-22.43854 0,-31.0281 37.011543,-48.45464 111.033533,-52.28002 53.87994,-2.97531 85.85635,-5.10173 95.92738,-6.37685 33.7379,-5.52556 65.20864,-16.36315 94.41462,-32.51475 58.4119,-32.30322 87.61791,-76.29529 87.61791,-131.97586 0,-44.62946 -20.39342,-87.98403 -61.18105,-130.06322 20.64558,-15.726576 40.28481,-23.59054 58.9162,-23.59054 17.62427,0 31.21915,5.10004 40.78664,15.301059 l 17.37316,19.128433 c 13.09233,14.451433 27.69427,21.675805 43.8079,21.675805 10.57457,-1.1e-5 19.38715,-3.187544 26.43687,-9.563168 7.04971,-6.800687 10.57431,-15.088251 10.57431,-24.864223 0,-16.151611 -9.06328,-29.753129 -27.19111,-40.804229 C 554.81341,6.8134059 534.92349,2.3508684 510.2495,2.3508684 c -22.15624,0 -42.80249,3.3993268 -61.93743,10.2000026 -18.6314,6.375639 -39.78114,17.427138 -63.44804,33.153704 C 334.50894,16.801694 285.16234,2.3508684 236.82145,2.3508684 Z M 175.18528,101.64749 c 21.27958,-1.7e-4 38.53022,15.60611 38.53035,34.85757 0.001,19.25229 -17.24986,34.85984 -38.53035,34.85967 -21.27964,-9e-4 -38.52935,-15.60815 -38.52819,-34.85967 1.3e-4,-19.2507 17.24946,-34.85667 38.52819,-34.85757 z m 118.73834,14.74013 c 21.27957,-1.7e-4 38.53022,15.6061 38.53034,34.85757 -1.2e-4,19.25146 -17.25077,34.85773 -38.53034,34.85756 -21.27957,1.7e-4 -38.53021,-15.60611 -38.53034,-34.85756 1.3e-4,-19.25146 17.25077,-34.85774 38.53034,-34.85757 z m -188.48951,79.45545 c 0,0 65.12105,29.28805 124.10134,33.64291 61.97836,4.57625 143.5962,-11.27967 143.5962,-11.27967 0,0 -43.67263,64.83514 -145.47645,64.88189 -94.41295,0.0433 -122.22109,-87.24513 -122.22109,-87.24513 z"
       sodipodi:nodetypes="sscscccssscsssccsscsccscscsccscccccccccccsccc" />
  </g>
</svg>
