<?xml version="1.0" encoding="UTF-8" standalone="no"?>
<!-- Uploaded to: SVG Repo, www.svgrepo.com, Generator: SVG Repo Mixer Tools -->

<svg
   width="800px"
   height="800px"
   viewBox="0 0 16 16"
   fill="none"
   version="1.1"
   id="svg1"
   sodipodi:docname="alien.svg"
   inkscape:version="1.4 (86a8ad7, 2024-10-11)"
   xmlns:inkscape="http://www.inkscape.org/namespaces/inkscape"
   xmlns:sodipodi="http://sodipodi.sourceforge.net/DTD/sodipodi-0.dtd"
   xmlns="http://www.w3.org/2000/svg"
   xmlns:svg="http://www.w3.org/2000/svg">
  <defs
     id="defs1" />
  <sodipodi:namedview
     id="namedview1"
     pagecolor="#ffffff"
     bordercolor="#999999"
     borderopacity="1"
     inkscape:showpageshadow="2"
     inkscape:pageopacity="0"
     inkscape:pagecheckerboard="0"
     inkscape:deskcolor="#d1d1d1"
     inkscape:zoom="0.98125"
     inkscape:cx="399.49045"
     inkscape:cy="400"
     inkscape:window-width="1680"
     inkscape:window-height="987"
     inkscape:window-x="-8"
     inkscape:window-y="13"
     inkscape:window-maximized="1"
     inkscape:current-layer="svg1" />
  <path
     id="path1"
     style="fill:#000000"
     d="M 8 0 C 4.15607 -7.5791225e-16 1 3.1161091 1 6.9600391 C 1 9.0428591 1.9327766 11.016181 3.5422266 12.338281 L 8 16 L 12.457813 12.338281 C 14.067213 11.016181 15 9.0428591 15 6.9600391 C 15 3.1161091 11.8439 0 8 0 z M 3 6 L 5 6 C 6.10457 6 7 6.89543 7 8 L 7 9 L 3 7.5 L 3 6 z M 11 6 L 13 6 L 13 7.5 L 9 9 L 9 8 C 9 6.89543 9.89543 6 11 6 z " />
</svg>
