<?xml version="1.0" encoding="UTF-8" standalone="no"?>
<!-- Created with Inkscape (http://www.inkscape.org/) -->

<svg
   width="600"
   height="740"
   viewBox="0 0 600 740"
   version="1.1"
   id="svg1"
   inkscape:version="1.4 (86a8ad7, 2024-10-11)"
   sodipodi:docname="g-logo.svg"
   xmlns:inkscape="http://www.inkscape.org/namespaces/inkscape"
   xmlns:sodipodi="http://sodipodi.sourceforge.net/DTD/sodipodi-0.dtd"
   xmlns="http://www.w3.org/2000/svg"
   xmlns:svg="http://www.w3.org/2000/svg">
  <sodipodi:namedview
     id="namedview1"
     pagecolor="#ffffff"
     bordercolor="#999999"
     borderopacity="1"
     inkscape:showpageshadow="2"
     inkscape:pageopacity="0"
     inkscape:pagecheckerboard="0"
     inkscape:deskcolor="#d1d1d1"
     inkscape:document-units="px"
     showgrid="true"
     inkscape:zoom="1.4455177"
     inkscape:cx="163.6092"
     inkscape:cy="106.19033"
     inkscape:window-width="1680"
     inkscape:window-height="987"
     inkscape:window-x="-8"
     inkscape:window-y="13"
     inkscape:window-maximized="1"
     inkscape:current-layer="layer1"
     showguides="true" />
  <defs
     id="defs1" />
  <g
     inkscape:label="skrokkur"
     inkscape:groupmode="layer"
     id="layer1"
     style="display:inline">
    <path
       id="text6"
       style="-inkscape-font-specification:'Baskerville Old Face';fill:#000000;stroke:#ffffff;stroke-width:0;stroke-linecap:round;stroke-linejoin:round"
       d="m 260.33186,2.3508684 c -29.65361,0 -58.6021,5.1715385 -86.84364,15.5142436 -28.24151,10.342704 -52.71776,24.862262 -73.42821,43.55869 C 64.758089,92.84972 47.107404,128.6501 47.107404,168.82752 c 0,31.42592 11.297799,60.2668 33.891025,86.52136 22.593221,25.85676 54.363651,46.74114 95.313881,62.653 -42.36228,9.14932 -71.54511,17.70247 -87.548644,25.65839 -31.065691,16.30965 -46.597412,38.58552 -46.597412,66.82906 0,26.65236 14.590413,49.52488 43.773325,68.61911 28.241541,18.29865 65.427571,27.44842 111.555381,27.44842 h 112.25839 c 48.01061,0 84.96028,7.7583 110.84835,23.27236 25.88807,15.91188 38.83217,38.58614 38.83217,68.02308 0,36.59725 -19.53332,66.23301 -58.60077,88.90741 -38.59678,23.0722 -89.43187,34.60854 -152.50461,34.60854 -59.3072,0 -108.02337,-10.34305 -146.14941,-31.02849 -38.126082,-20.6854 -57.18874,-47.13974 -57.18874,-79.36124 0,-20.28761 6.118563,-36.79532 18.356554,-49.5248 12.708688,-12.72949 28.947401,-19.0943 48.716476,-19.0943 11.76729,0 21.65112,2.18834 29.6529,6.56409 8.00176,4.37576 16.00493,12.13207 24.00672,23.27039 0,0 7.78681,7.44395 10.76308,0.86047 2.97625,-6.58347 1.94531,-10.40861 1.94531,-10.40861 0,-17.50304 -6.82554,-31.62418 -20.47562,-42.36468 -13.17938,-10.74051 -30.35941,-16.11026 -51.54055,-16.11026 -29.182933,0 -53.893497,9.14978 -74.13326,27.44843 -20.239762,18.69643 -30.3599145,41.37071 -30.3599145,68.02307 0,33.8127 13.6490955,62.05498 40.9492375,84.72937 42.832989,35.00609 115.554727,52.50883 218.165607,52.50883 95.55051,0 168.0379,-14.91599 217.46057,-44.75073 48.0106,-29.03913 72.01617,-69.41637 72.01617,-121.1299 0,-46.93999 -20.71096,-83.33896 -62.13187,-109.19572 -21.18115,-13.12729 -45.89172,-22.67352 -74.13324,-28.64046 -28.24154,-6.36474 -62.83791,-9.54617 -103.78813,-9.54617 H 193.96385 c -58.83652,0 -88.25567,-12.72964 -88.25567,-38.18861 0,-29.03914 34.59639,-45.34861 103.78813,-48.92877 50.36405,-2.78459 80.25387,-4.7747 89.66772,-5.96808 31.53636,-5.17136 60.9535,-15.31424 88.25367,-30.4305 54.60028,-30.23252 81.90048,-71.40461 81.90048,-123.51595 0,-41.76863 -19.06267,-82.344091 -57.18873,-121.725925 19.29837,-14.718473 37.65605,-22.078342 55.07167,-22.078342 16.47421,0 29.18197,4.773118 38.12514,14.320232 l 16.23949,17.902264 c 12.238,13.525069 25.8871,20.286345 40.94925,20.286345 9.88453,-1e-5 18.12206,-2.983216 24.71175,-8.950151 6.58969,-6.36475 9.88429,-14.121065 9.88429,-23.270379 0,-15.116262 -8.47186,-27.845897 -25.41677,-38.188601 C 557.57351,6.5273488 538.98149,2.3508684 515.91758,2.3508684 c -20.71045,0 -40.00945,3.1814235 -57.89575,9.5461636 C 440.60621,17.86398 420.83658,28.207057 398.71404,42.92552 351.64483,15.875369 305.5183,2.3508684 260.33186,2.3508684 Z M 202.71771,95.282393 a 36.015751,32.623329 0 0 1 36.01608,32.623127 36.015751,32.623329 0 0 1 -36.01608,32.6251 36.015751,32.623329 0 0 1 -36.01407,-32.6251 36.015751,32.623329 0 0 1 36.01407,-32.623127 z m 110.99016,13.795257 a 36.015751,32.623329 0 0 1 36.01608,32.62313 36.015751,32.623329 0 0 1 -36.01608,32.62313 36.015751,32.623329 0 0 1 -36.01607,-32.62313 36.015751,32.623329 0 0 1 36.01607,-32.62313 z m -176.18978,74.3622 c 0,0 60.87163,27.41063 116.00321,31.48634 57.93401,4.2829 134.22595,-10.55662 134.22595,-10.55662 0,0 -40.82281,60.67908 -135.98351,60.72284 -88.25211,0.0405 -114.24565,-81.65256 -114.24565,-81.65256 z" />
  </g>
</svg>
